<svg xmlns="http://www.w3.org/2000/svg" viewBox="0 0 60 74" width="308" height="368">
  <defs><linearGradient id="gglass" x1="0" y1="0" x2="0" y2="1"><stop offset="0%" stop-color="#ffffff"/><stop offset="100%" stop-color="#e2e8f0"/></linearGradient></defs>
  <path d="M 20,27 C 20,38 6,40 6,52 C 6,64 12,72 20,72 L 40,72 C 48,72 54,64 54,52 C 54,40 40,38 40,27 Z" fill="url(#gglass)"/>
  <rect x="20" y="11" width="20" height="16" fill="#ffffff"/>
  <path d="M 20,11 L 40,11 L 40,27 C 40,38 54,40 54,52 C 54,64 48,72 40,72 L 20,72 C 12,72 6,64 6,52 C 6,40 20,38 20,27 Z" fill="none" stroke="#334155" stroke-width="3.2" stroke-linejoin="round" stroke-linecap="round"/>
  <rect x="16" y="1" width="28" height="11" rx="4" fill="#64748b" stroke="#334155" stroke-width="2.5"/>
  <rect x="20" y="43" width="20" height="6" rx="3.0" fill="#111827"/>
  <rect x="27" y="36" width="6" height="20" rx="3.0" fill="#111827"/>
  <rect x="20" y="59" width="20" height="6" rx="3.0" fill="#111827"/>
</svg>