<svg xmlns="http://www.w3.org/2000/svg" viewBox="3.1 2.4 73.8 69.2" width="80" height="80">
  <defs><radialGradient id="shell" cx="38%" cy="30%" r="68%"><stop offset="0%" stop-color="#e2e8f0"/><stop offset="70%" stop-color="#94a3b8"/><stop offset="100%" stop-color="#475569"/></radialGradient><radialGradient id="rg10" cx="33%" cy="28%" r="70%"><stop offset="0%" stop-color="#93ffbd"/><stop offset="55%" stop-color="#18b351"/><stop offset="100%" stop-color="#165b32"/></radialGradient><radialGradient id="rg11" cx="33%" cy="28%" r="70%"><stop offset="0%" stop-color="#84b1e4"/><stop offset="55%" stop-color="#2159d4"/><stop offset="100%" stop-color="#1b347c"/></radialGradient><radialGradient id="rg12" cx="33%" cy="28%" r="70%"><stop offset="0%" stop-color="#e39494"/><stop offset="55%" stop-color="#d73d3d"/><stop offset="100%" stop-color="#721a1a"/></radialGradient></defs>
  <circle cx="34.2" cy="45.3" r="19" fill="url(#shell)" stroke="#334155" stroke-width="1.5"/>  <circle cx="34.2" cy="45.3" r="17" fill="none" stroke="rgba(0,0,0,0.18)" stroke-width="4"/>  <circle cx="22.7" cy="52.0" r="18" fill="url(#rg10)" stroke="rgba(0,0,0,0.5)" stroke-width="1.2"/>
  <rect x="11.7" y="50.0" width="22" height="4" rx="2" fill="white"/>
  <rect x="20.7" y="41.0" width="4" height="22" rx="2" fill="white"/>  <circle cx="57.3" cy="52.0" r="13" fill="url(#rg11)" stroke="rgba(0,0,0,0.5)" stroke-width="1.2"/>
  <rect x="46.3" y="50.0" width="22" height="4" rx="2" fill="white"/>
  <rect x="55.3" y="41.0" width="4" height="22" rx="2" fill="white"/>  <circle cx="40.0" cy="22.0" r="13" fill="url(#rg12)" stroke="rgba(0,0,0,0.5)" stroke-width="1.2"/>
  <rect x="29.0" y="20.0" width="22" height="4" rx="2" fill="white"/>  <ellipse cx="28" cy="22" rx="9" ry="5" fill="white" opacity="0.22" transform="rotate(-30 28 22)"/>
</svg>