<svg xmlns="http://www.w3.org/2000/svg" viewBox="0 0 60 74" width="308" height="368">
  <defs><linearGradient id="gow" x1="0" y1="0" x2="0" y2="1"><stop offset="0%" stop-color="#374151"/><stop offset="100%" stop-color="#111827"/></linearGradient></defs>
  <path d="M 20,27 C 20,38 6,40 6,52 C 6,64 12,72 20,72 L 40,72 C 48,72 54,64 54,52 C 54,40 40,38 40,27 Z" fill="url(#gow)"/>
  <rect x="20" y="11" width="20" height="16" fill="#374151"/>
  <path d="M 20,11 L 40,11 L 40,27 C 40,38 54,40 54,52 C 54,64 48,72 40,72 L 20,72 C 12,72 6,64 6,52 C 6,40 20,38 20,27 Z" fill="none" stroke="#0f172a" stroke-width="3.2" stroke-linejoin="round" stroke-linecap="round"/>
  <rect x="16" y="1" width="28" height="11" rx="4" fill="#92400E" stroke="#0f172a" stroke-width="2.5"/>
  <path d="M 16,39 L 44,65 M 44,39 L 16,65" stroke="white" stroke-width="7" stroke-linecap="round"/>
</svg>